<svg version="1.1" id="Layer_1" xmlns="http://www.w3.org/2000/svg" xmlns:xlink="http://www.w3.org/1999/xlink" x="0px" y="0px"
	 width="100%" viewBox="0 0 500 500" enable-background="new 0 0 500 500" xml:space="preserve">
<path fill="#010101" opacity="1.000000" stroke="none" 
	d="
M284.000000,501.000000 
	C189.333359,501.000000 95.166710,501.000000 1.000051,501.000000 
	C1.000034,334.333405 1.000034,167.666794 1.000017,1.000140 
	C167.666565,1.000093 334.333130,1.000093 500.999756,1.000047 
	C500.999847,167.666519 500.999847,334.333038 500.999939,500.999786 
	C428.833344,501.000000 356.666656,501.000000 284.000000,501.000000 
M389.854034,146.816010 
	C389.984589,146.958130 390.115112,147.100235 389.901062,147.825760 
	C386.021881,150.808624 382.142700,153.791489 378.263519,156.774338 
	C378.794342,157.429337 379.325195,158.084335 379.856018,158.739319 
	C386.245331,153.915390 392.634613,149.091446 399.023895,144.267517 
	C398.864960,143.642151 398.705994,143.016785 398.547058,142.391434 
	C396.469147,142.584259 394.351898,142.590729 392.323761,143.019226 
	C390.020752,143.505798 387.797516,144.369934 384.916870,145.262985 
	C391.425720,134.512253 391.425720,134.512253 389.330719,132.000687 
	C383.066772,136.859421 376.803680,141.717499 370.540619,146.575577 
	C370.967712,147.171310 371.394836,147.767059 371.821960,148.362808 
	C375.681152,145.654846 379.540314,142.946899 383.891937,140.829544 
	C384.065582,141.018127 384.239197,141.206726 384.120056,142.016830 
	C382.992676,143.870239 381.865326,145.723648 379.918762,148.923782 
	C384.102142,147.801254 386.806366,147.075623 389.854034,146.816010 
M178.475632,355.499695 
	C178.466049,368.499176 178.392731,381.499359 178.534119,394.497192 
	C178.550339,395.986664 179.712830,398.720673 180.434753,398.751556 
	C187.840454,399.068207 195.264969,398.945618 203.163116,398.945618 
	C203.163116,374.601410 203.163116,351.106476 203.163116,327.611572 
	C212.717514,344.594025 221.499207,361.705994 230.368652,378.772339 
	C232.964035,383.766296 234.677292,390.511353 238.857178,393.026428 
	C243.057220,395.553711 249.840622,393.619446 255.466385,394.009033 
	C258.812347,394.240784 260.526855,393.016846 261.961609,390.049011 
	C268.613586,376.289490 275.470947,362.629028 282.290894,348.951080 
	C285.564270,342.386108 288.917572,335.860962 292.234650,329.317780 
	C292.536072,329.407928 292.837524,329.498077 293.138947,329.588226 
	C293.138947,342.314026 293.138947,355.039856 293.138947,367.731140 
	C301.419952,367.731140 309.307709,367.731140 317.016876,367.731140 
	C317.016876,335.425568 317.016876,303.464813 317.016876,270.994049 
	C310.598083,270.994049 304.444305,271.273254 298.331207,270.894989 
	C294.317749,270.646698 292.482971,272.185577 290.868866,275.716919 
	C280.025543,299.439606 268.960236,323.060913 257.946899,346.705780 
	C255.138123,352.735992 252.257370,358.732635 249.072433,365.456696 
	C247.787201,362.959747 246.935287,361.372864 246.143646,359.756470 
	C232.331879,331.555542 218.550659,303.339539 204.661240,275.176910 
	C203.867722,273.567963 202.263443,271.267822 200.933517,271.195953 
	C193.677383,270.804016 186.388977,271.009491 178.475647,271.009491 
	C178.475647,299.248444 178.475647,326.874054 178.475632,355.499695 
M225.273788,205.499863 
	C225.273788,215.342560 225.273788,225.185242 225.273788,235.027939 
	C208.395004,212.559814 192.599442,189.950699 176.765015,167.368835 
	C173.237091,162.337601 170.569366,155.439987 165.695801,152.964066 
	C160.631393,150.391235 153.364532,152.291733 147.077942,151.934662 
	C143.323105,151.721420 141.862823,152.616867 141.890732,156.833008 
	C142.087036,186.488327 141.990387,216.145538 142.008972,245.802139 
	C142.009674,246.905273 142.232941,248.008270 142.338318,248.980774 
	C150.458435,248.980774 158.251907,248.980774 166.774277,248.980774 
	C166.774277,231.506714 166.774277,214.248093 166.774277,195.678299 
	C183.558151,219.675369 199.462219,242.436096 215.394547,265.177032 
	C218.820007,270.066345 221.371323,276.832733 226.096100,279.199677 
	C231.052368,281.682587 238.156738,279.652924 244.286636,280.092590 
	C248.767059,280.413879 249.915375,278.856140 249.880447,274.487976 
	C249.683273,249.831421 249.785263,225.172501 249.784012,200.514374 
	C249.783264,185.852676 249.690994,171.190048 249.843521,156.529968 
	C249.879669,153.057114 248.814285,151.760605 245.282745,151.931900 
	C240.296219,152.173752 235.274597,152.228943 230.295624,151.919449 
	C226.307373,151.671539 225.138412,153.033615 225.191330,157.017105 
	C225.401581,172.842255 225.275360,188.671875 225.273788,205.499863 
M246.879395,424.824524 
	C240.591675,424.194580 234.274506,423.774994 228.021210,422.899231 
	C196.329544,418.460999 168.604950,405.176208 144.717621,384.158875 
	C115.152382,358.145782 96.664566,325.439331 88.983246,286.901031 
	C86.465500,274.269135 85.827400,261.262573 84.299263,248.166260 
	C81.863701,248.166260 78.917786,248.166260 75.506744,248.166260 
	C75.506744,249.892395 75.503700,251.521652 75.507187,253.150925 
	C75.591156,292.420715 86.833206,328.287476 109.657318,360.139587 
	C142.058517,405.356995 186.098511,431.553040 241.843353,434.547455 
	C299.483521,437.643707 346.964508,415.035645 383.992920,371.099731 
	C408.320404,342.234070 421.719604,308.404327 425.791870,270.926056 
	C426.610138,263.395599 426.650818,255.780685 427.048370,248.236008 
	C423.097687,248.236008 420.000488,248.236008 417.003632,248.236008 
	C416.722076,252.854843 416.502258,257.180023 416.183197,261.497864 
	C415.852570,265.971924 415.631042,270.467651 415.009460,274.904541 
	C408.443787,321.769958 387.208801,360.451355 350.069397,390.014160 
	C320.191742,413.796722 285.832428,424.822632 246.879395,424.824524 
M313.889923,158.613525 
	C311.748840,153.337662 309.607758,148.061783 307.466675,142.785919 
	C306.792053,142.723816 306.117432,142.661728 305.442841,142.599640 
	C288.957520,185.111420 272.472198,227.623199 255.648819,271.006744 
	C263.697479,271.006744 270.484100,270.851166 277.257965,271.077606 
	C280.282654,271.178680 281.616547,270.146606 282.571869,267.285583 
	C286.562317,255.334930 290.807617,243.469254 294.975922,231.578186 
	C298.675171,221.025375 302.396149,210.480179 306.413483,199.061951 
	C307.203644,201.094528 307.644165,202.149796 308.027588,203.225433 
	C315.602173,224.476837 323.141510,245.740952 330.800476,266.961884 
	C331.341248,268.460144 332.705444,270.749390 333.769165,270.796173 
	C341.336853,271.128937 348.926025,270.973541 357.472015,270.973541 
	C342.756409,233.127136 328.416260,196.246307 313.889923,158.613525 
M375.170105,136.679611 
	C378.491241,133.466248 381.812378,130.252884 385.540009,126.646248 
	C379.566071,122.546402 376.103088,130.079208 371.268677,128.679153 
	C377.114990,118.951134 377.145538,118.813660 374.065399,116.255493 
	C362.250183,126.535988 358.150238,131.174713 358.544769,134.560715 
	C362.297394,131.138275 365.781860,127.960373 369.266327,124.782463 
	C369.572876,125.042473 369.879395,125.302483 370.185913,125.562485 
	C369.313873,127.898933 368.441833,130.235382 367.168152,133.647903 
	C370.635254,132.420029 373.065002,131.559525 375.494751,130.699020 
	C375.730377,131.057800 375.966003,131.416580 376.201630,131.775360 
	C372.824585,135.196289 369.447510,138.617218 366.070465,142.038147 
	C366.649628,142.589844 367.228821,143.141541 367.807983,143.693237 
	C370.093811,141.522751 372.379608,139.352280 375.170105,136.679611 
M167.331497,103.103813 
	C165.013092,99.337311 162.694687,95.570808 160.101807,91.358376 
	C154.985245,95.738731 161.051804,100.530479 159.009048,104.446030 
	C154.560349,104.195076 153.081345,96.802628 146.952164,99.571060 
	C150.903625,106.010757 154.398727,111.814293 158.036591,117.526909 
	C158.626282,118.452896 159.849426,118.975502 160.779755,119.684570 
	C160.552307,118.430252 160.616165,117.019928 160.043427,115.950531 
	C158.243805,112.590225 156.204773,109.358131 154.258438,106.076393 
	C154.554047,105.856995 154.849640,105.637589 155.145233,105.418190 
	C157.463730,107.031242 159.782227,108.644302 163.342163,111.121071 
	C162.451538,106.823654 161.862915,103.983421 161.274292,101.143188 
	C161.613922,100.969933 161.953552,100.796677 162.293167,100.623413 
	C165.238663,104.914360 168.184158,109.205307 171.129639,113.496254 
	C171.693222,113.106995 172.256805,112.717735 172.820389,112.328476 
	C171.135071,109.449226 169.449738,106.569969 167.331497,103.103813 
M308.084045,77.247826 
	C305.654724,80.295853 303.225403,83.343872 300.013794,87.373444 
	C300.013794,83.713287 300.045959,81.278374 300.006805,78.844620 
	C299.934296,74.333183 299.916931,74.333466 296.223724,74.028435 
	C294.644836,81.622925 290.623108,88.699646 289.947083,96.526222 
	C290.545441,96.683464 291.143768,96.840706 291.742096,96.997948 
	C293.489868,91.723465 295.237640,86.448982 296.985382,81.174500 
	C297.416504,81.274147 297.847626,81.373795 298.278748,81.473434 
	C298.278748,84.692909 298.278748,87.912376 298.278748,92.651329 
	C301.055298,89.716064 302.822418,87.847923 304.589539,85.979782 
	C304.874817,86.134682 305.160126,86.289581 305.445404,86.444481 
	C304.320587,91.108665 303.195801,95.772858 302.070984,100.437042 
	C302.729279,100.573616 303.387543,100.710182 304.045807,100.846756 
	C306.332581,93.804230 308.686981,86.781731 310.788910,79.684456 
	C310.974701,79.057076 309.512482,77.941605 308.084045,77.247826 
M87.604897,182.992401 
	C81.290268,183.185410 81.290268,183.185410 80.087990,186.900513 
	C87.286400,189.976532 94.508316,193.062592 101.730225,196.148651 
	C102.068321,195.588928 102.406410,195.029221 102.744507,194.469498 
	C100.236511,193.140427 97.766335,191.732773 95.210495,190.503174 
	C92.332726,189.118698 89.377747,187.894714 86.456352,186.600922 
	C90.482262,185.649109 94.271950,185.372223 98.066620,185.217194 
	C106.212433,184.884399 106.213486,184.910110 107.555939,182.214828 
	C98.410210,176.734222 87.576057,172.880463 84.308922,174.581924 
	C87.255447,175.882065 89.760109,176.985306 92.263153,178.092194 
	C94.865936,179.243195 97.467155,180.397736 100.069054,181.550720 
	C99.991592,182.028595 99.914124,182.506470 99.836655,182.984344 
	C96.068657,182.984344 92.300652,182.984344 87.604897,182.992401 
M118.729156,139.646835 
	C110.094795,134.974045 107.289642,136.073471 100.280846,147.124863 
	C106.522591,151.874054 112.790787,156.643372 119.025337,161.387100 
	C128.327316,151.582138 128.341263,147.491486 118.729156,139.646835 
M408.189819,171.858002 
	C402.921356,174.138016 397.652863,176.418030 392.068451,178.834778 
	C394.701416,183.869858 394.840973,190.374847 401.843414,191.165237 
	C407.862823,191.844711 413.153778,189.594513 416.624664,184.677277 
	C420.542114,179.127472 416.365326,174.476135 414.194122,169.398346 
	C412.200867,170.212509 410.537689,170.891861 408.189819,171.858002 
M329.328888,103.819199 
	C328.088593,106.017021 326.848267,108.214851 325.607941,110.412674 
	C326.216217,110.768585 326.824493,111.124496 327.432770,111.480408 
	C329.468903,108.483002 331.505005,105.485596 333.689392,102.269943 
	C336.465240,103.970100 339.249573,105.675423 342.015228,107.369331 
	C337.287659,116.150726 337.287659,116.150726 338.647125,118.457520 
	C342.977234,111.380577 347.167236,104.532600 351.357239,97.684624 
	C350.716614,97.241455 350.076019,96.798286 349.435425,96.355118 
	C347.453003,99.291435 345.470551,102.227753 343.315338,105.419991 
	C340.382050,103.619385 337.639648,101.935944 334.928802,100.271881 
	C339.577881,91.779282 339.577881,91.779282 338.161743,89.558479 
	C335.281036,94.248291 332.524292,98.736298 329.328888,103.819199 
M314.349335,85.822380 
	C312.805145,89.753624 310.754120,93.574341 309.865631,97.648567 
	C309.049133,101.392738 311.271210,104.337265 314.865997,105.881416 
	C318.465424,107.427582 321.988831,106.811386 324.377380,103.900589 
	C326.525574,101.282677 328.236786,98.118309 329.397491,94.924812 
	C330.897675,90.797318 330.549988,86.650581 326.460052,83.842438 
	C322.226410,80.935616 318.356598,81.827309 314.349335,85.822380 
M387.422821,161.997391 
	C389.256378,160.977676 391.089905,159.957962 392.889038,158.957413 
	C394.816895,161.719940 396.531494,164.176849 398.246063,166.633743 
	C398.696320,166.329575 399.146576,166.025406 399.596802,165.721237 
	C398.190186,163.007706 396.783569,160.294159 395.300171,157.432465 
	C397.616119,156.087845 399.880646,154.773087 402.362244,153.332306 
	C404.715759,157.183182 406.889709,160.740189 409.063629,164.297180 
	C409.644470,163.914124 410.225311,163.531067 410.806183,163.148026 
	C408.242615,158.714874 405.679047,154.281723 403.044830,149.726395 
	C395.736664,154.042007 388.958649,158.044540 382.124878,162.080017 
	C384.977997,166.906540 387.498566,171.170456 390.019104,175.434372 
	C390.598022,175.095749 391.176971,174.757126 391.755890,174.418503 
	C390.329163,171.813263 388.769653,169.268951 387.534119,166.575974 
	C386.953735,165.310928 386.997040,163.759720 387.422821,161.997391 
M134.764221,112.061050 
	C137.493912,109.769829 140.223587,107.478607 142.953278,105.187386 
	C142.535172,104.707626 142.117065,104.227867 141.698944,103.748108 
	C137.712357,106.880310 133.725769,110.012520 129.516998,113.319283 
	C134.699432,119.789719 139.628632,125.943977 144.748688,132.336533 
	C148.938278,128.859299 152.815369,125.641441 156.692444,122.423576 
	C156.316116,121.933228 155.939789,121.442886 155.563461,120.952538 
	C152.191574,123.479042 148.819687,126.005554 145.201218,128.716827 
	C143.419876,126.445374 141.644623,124.181717 139.981583,122.061119 
	C142.636581,119.627121 144.797943,117.645660 146.959320,115.664207 
	C146.602173,115.225876 146.245026,114.787544 145.887878,114.349213 
	C143.399765,116.170502 140.911636,117.991791 137.689865,120.350105 
	C136.467453,117.576363 135.346741,115.033379 134.764221,112.061050 
M192.063309,100.184685 
	C192.550598,100.816811 193.037888,101.448936 193.525177,102.081062 
	C194.004608,101.177010 194.921173,100.254608 194.884125,99.372223 
	C194.756516,96.331398 195.120224,94.161171 198.739822,93.164909 
	C202.291275,92.187408 205.058304,91.680267 206.919937,95.712273 
	C207.298203,96.531517 208.728729,96.864922 209.674164,97.422295 
	C209.965500,97.083496 210.256851,96.744698 210.548187,96.405899 
	C206.339096,90.526047 202.202286,84.591782 197.854965,78.815956 
	C197.061966,77.762360 195.410370,77.355011 194.155106,76.649345 
	C193.564560,78.021713 192.524353,79.373703 192.461075,80.769981 
	C192.182297,86.920021 192.185303,93.082840 192.063309,100.184685 
M95.610313,158.140259 
	C91.821022,158.146652 90.951813,159.755066 93.417793,162.632904 
	C98.337524,168.374329 103.407669,173.986862 108.415688,179.652634 
	C108.804871,179.465012 109.194054,179.277374 109.583244,179.089737 
	C109.146439,177.869324 109.063576,176.231506 108.207466,175.505554 
	C105.474495,173.188049 105.411751,170.980225 107.560585,168.302170 
	C108.571274,167.042572 109.288864,165.547806 110.031967,164.334778 
	C112.902794,164.334778 115.456367,164.334778 118.009949,164.334778 
	C118.027321,163.894119 118.044693,163.453461 118.062057,163.012802 
	C110.842461,161.454224 103.622856,159.895645 95.610313,158.140259 
M359.599884,106.822578 
	C353.277985,110.925682 346.956055,115.028793 340.634155,119.131905 
	C340.895294,119.690460 341.156433,120.249008 341.417572,120.807564 
	C343.884186,119.697212 346.350800,118.586853 348.885895,117.445679 
	C349.375488,117.844131 349.849579,118.319901 350.404266,118.666786 
	C354.089874,120.971748 357.143982,123.432930 354.059326,128.373825 
	C353.719818,128.917633 354.501251,130.161255 354.762817,131.080292 
	C358.484467,123.836105 361.380371,116.674774 363.821838,109.361725 
	C364.715485,106.684875 363.245026,105.222694 359.599884,106.822578 
M137.352768,139.874146 
	C138.805176,138.164261 140.257584,136.454376 141.709976,134.744492 
	C141.378250,134.449127 141.046524,134.153778 140.714798,133.858414 
	C137.950867,137.012939 135.186920,140.167450 132.048126,143.749802 
	C129.048553,140.490585 127.175667,138.455582 125.333229,136.453659 
	C127.384926,134.070023 129.382614,131.749130 131.380310,129.428238 
	C130.973297,129.063889 130.566284,128.699524 130.159271,128.335159 
	C127.935966,130.416229 125.712662,132.497284 123.413666,134.649185 
	C121.235191,132.727600 119.065468,130.813751 116.855560,128.864426 
	C119.886856,125.700218 122.697548,122.766289 125.508232,119.832359 
	C125.325607,119.703011 125.142982,119.573654 124.960358,119.444305 
	C121.115860,122.597183 117.271362,125.750053 115.177612,127.467148 
	C120.769630,134.145874 125.861015,140.226685 130.855530,146.191803 
	C133.271179,143.848877 135.063354,142.110657 137.352768,139.874146 
M236.928955,73.848717 
	C237.218918,79.109505 237.508881,84.370285 237.791504,89.497696 
	C236.320419,90.063446 235.104019,90.531242 233.887634,90.999031 
	C233.985031,91.509430 234.082413,92.019821 234.179794,92.530220 
	C237.587326,92.302048 240.994843,92.073875 244.402359,91.845711 
	C244.419128,91.372383 244.435913,90.899055 244.452682,90.425728 
	C243.166351,90.079086 241.880005,89.732445 240.478302,89.354713 
	C240.137115,83.039055 239.807251,76.932968 239.481033,70.894302 
	C240.841080,70.262329 242.018921,69.715019 243.196747,69.167709 
	C243.108276,68.742432 243.019791,68.317154 242.931305,67.891876 
	C239.590164,68.055305 236.249039,68.218735 232.354218,68.409248 
	C234.522690,70.567322 235.705429,71.744408 236.928955,73.848717 
M214.916138,92.827003 
	C213.474869,85.945511 212.033600,79.064018 210.533417,71.901260 
	C208.028320,74.380531 209.208969,84.488960 213.059723,96.375290 
	C217.936050,95.392403 222.855606,94.400803 227.775177,93.409203 
	C227.665634,92.800110 227.556091,92.191017 227.446533,91.581924 
	C223.494720,92.189690 219.542908,92.797462 214.916138,92.827003 
M261.189270,80.769737 
	C263.546234,76.654648 265.903229,72.539558 268.260223,68.424469 
	C267.632629,68.091309 267.005066,67.758148 266.377472,67.424995 
	C261.059570,76.636932 255.741653,85.848869 250.423737,95.060806 
	C251.029221,95.417229 251.634689,95.773651 252.240173,96.130074 
	C255.124039,91.233475 258.007904,86.336884 261.189270,80.769737 
M405.262054,217.698242 
	C408.577911,220.613174 411.893799,223.528107 415.478333,226.679214 
	C418.473663,222.444565 420.971405,218.913406 423.469116,215.382248 
	C422.911743,214.992432 422.354370,214.602615 421.796967,214.212799 
	C419.590179,217.133240 417.383423,220.053680 415.236267,222.895203 
	C411.878693,220.876846 408.834625,219.046936 405.262054,217.698242 
M81.908134,221.631622 
	C80.838631,220.317917 79.769135,219.004196 78.699638,217.690491 
	C78.196175,218.061768 77.692711,218.433044 77.189247,218.804321 
	C79.760658,222.376724 82.332062,225.949142 85.168236,229.889389 
	C88.977242,226.990097 92.393471,224.389771 95.809700,221.789459 
	C95.442665,221.317383 95.075630,220.845322 94.708595,220.373245 
	C91.665901,222.416153 88.623207,224.459061 85.548584,226.523407 
	C84.313118,224.876221 83.318771,223.550507 81.908134,221.631622 
z"/>
<path fill="#FBFBFB" opacity="1.000000" stroke="none" 
	d="
M178.475647,354.999695 
	C178.475647,326.874054 178.475647,299.248444 178.475647,271.009491 
	C186.388977,271.009491 193.677383,270.804016 200.933517,271.195953 
	C202.263443,271.267822 203.867722,273.567963 204.661240,275.176910 
	C218.550659,303.339539 232.331879,331.555542 246.143646,359.756470 
	C246.935287,361.372864 247.787201,362.959747 249.072433,365.456696 
	C252.257370,358.732635 255.138123,352.735992 257.946899,346.705780 
	C268.960236,323.060913 280.025543,299.439606 290.868866,275.716919 
	C292.482971,272.185577 294.317749,270.646698 298.331207,270.894989 
	C304.444305,271.273254 310.598083,270.994049 317.016876,270.994049 
	C317.016876,303.464813 317.016876,335.425568 317.016876,367.731140 
	C309.307709,367.731140 301.419952,367.731140 293.138947,367.731140 
	C293.138947,355.039856 293.138947,342.314026 293.138947,329.588226 
	C292.837524,329.498077 292.536072,329.407928 292.234650,329.317780 
	C288.917572,335.860962 285.564270,342.386108 282.290894,348.951080 
	C275.470947,362.629028 268.613586,376.289490 261.961609,390.049011 
	C260.526855,393.016846 258.812347,394.240784 255.466385,394.009033 
	C249.840622,393.619446 243.057220,395.553711 238.857178,393.026428 
	C234.677292,390.511353 232.964035,383.766296 230.368652,378.772339 
	C221.499207,361.705994 212.717514,344.594025 203.163116,327.611572 
	C203.163116,351.106476 203.163116,374.601410 203.163116,398.945618 
	C195.264969,398.945618 187.840454,399.068207 180.434753,398.751556 
	C179.712830,398.720673 178.550339,395.986664 178.534119,394.497192 
	C178.392731,381.499359 178.466049,368.499176 178.475647,354.999695 
z"/>
<path fill="#FCFCFC" opacity="1.000000" stroke="none" 
	d="
M225.273788,204.999847 
	C225.275360,188.671875 225.401581,172.842255 225.191330,157.017105 
	C225.138412,153.033615 226.307373,151.671539 230.295624,151.919449 
	C235.274597,152.228943 240.296219,152.173752 245.282745,151.931900 
	C248.814285,151.760605 249.879669,153.057114 249.843521,156.529968 
	C249.690994,171.190048 249.783264,185.852676 249.784012,200.514374 
	C249.785263,225.172501 249.683273,249.831421 249.880447,274.487976 
	C249.915375,278.856140 248.767059,280.413879 244.286636,280.092590 
	C238.156738,279.652924 231.052368,281.682587 226.096100,279.199677 
	C221.371323,276.832733 218.820007,270.066345 215.394547,265.177032 
	C199.462219,242.436096 183.558151,219.675369 166.774277,195.678299 
	C166.774277,214.248093 166.774277,231.506714 166.774277,248.980774 
	C158.251907,248.980774 150.458435,248.980774 142.338318,248.980774 
	C142.232941,248.008270 142.009674,246.905273 142.008972,245.802139 
	C141.990387,216.145538 142.087036,186.488327 141.890732,156.833008 
	C141.862823,152.616867 143.323105,151.721420 147.077942,151.934662 
	C153.364532,152.291733 160.631393,150.391235 165.695801,152.964066 
	C170.569366,155.439987 173.237091,162.337601 176.765015,167.368835 
	C192.599442,189.950699 208.395004,212.559814 225.273788,235.027939 
	C225.273788,225.185242 225.273788,215.342560 225.273788,204.999847 
z"/>
<path fill="#F7F7F7" opacity="1.000000" stroke="none" 
	d="
M247.338638,424.846924 
	C285.832428,424.822632 320.191742,413.796722 350.069397,390.014160 
	C387.208801,360.451355 408.443787,321.769958 415.009460,274.904541 
	C415.631042,270.467651 415.852570,265.971924 416.183197,261.497864 
	C416.502258,257.180023 416.722076,252.854843 417.003632,248.236008 
	C420.000488,248.236008 423.097687,248.236008 427.048370,248.236008 
	C426.650818,255.780685 426.610138,263.395599 425.791870,270.926056 
	C421.719604,308.404327 408.320404,342.234070 383.992920,371.099731 
	C346.964508,415.035645 299.483521,437.643707 241.843353,434.547455 
	C186.098511,431.553040 142.058517,405.356995 109.657318,360.139587 
	C86.833206,328.287476 75.591156,292.420715 75.507187,253.150925 
	C75.503700,251.521652 75.506744,249.892395 75.506744,248.166260 
	C78.917786,248.166260 81.863701,248.166260 84.299263,248.166260 
	C85.827400,261.262573 86.465500,274.269135 88.983246,286.901031 
	C96.664566,325.439331 115.152382,358.145782 144.717621,384.158875 
	C168.604950,405.176208 196.329544,418.460999 228.021210,422.899231 
	C234.274506,423.774994 240.591675,424.194580 247.338638,424.846924 
z"/>
<path fill="#FCFCFC" opacity="1.000000" stroke="none" 
	d="
M313.983032,158.989502 
	C328.416260,196.246307 342.756409,233.127136 357.472015,270.973541 
	C348.926025,270.973541 341.336853,271.128937 333.769165,270.796173 
	C332.705444,270.749390 331.341248,268.460144 330.800476,266.961884 
	C323.141510,245.740952 315.602173,224.476837 308.027588,203.225433 
	C307.644165,202.149796 307.203644,201.094528 306.413483,199.061951 
	C302.396149,210.480179 298.675171,221.025375 294.975922,231.578186 
	C290.807617,243.469254 286.562317,255.334930 282.571869,267.285583 
	C281.616547,270.146606 280.282654,271.178680 277.257965,271.077606 
	C270.484100,270.851166 263.697479,271.006744 255.648819,271.006744 
	C272.472198,227.623199 288.957520,185.111420 305.442841,142.599640 
	C306.117432,142.661728 306.792053,142.723816 307.466675,142.785919 
	C309.607758,148.061783 311.748840,153.337662 313.983032,158.989502 
z"/>
<path fill="#E6E6E6" opacity="1.000000" stroke="none" 
	d="
M374.917786,136.930695 
	C372.379608,139.352280 370.093811,141.522751 367.807983,143.693237 
	C367.228821,143.141541 366.649628,142.589844 366.070465,142.038147 
	C369.447510,138.617218 372.824585,135.196289 376.201630,131.775360 
	C375.966003,131.416580 375.730377,131.057800 375.494751,130.699020 
	C373.065002,131.559525 370.635254,132.420029 367.168152,133.647903 
	C368.441833,130.235382 369.313873,127.898933 370.185913,125.562485 
	C369.879395,125.302483 369.572876,125.042473 369.266327,124.782463 
	C365.781860,127.960373 362.297394,131.138275 358.544769,134.560715 
	C358.150238,131.174713 362.250183,126.535988 374.065399,116.255493 
	C377.145538,118.813660 377.114990,118.951134 371.268677,128.679153 
	C376.103088,130.079208 379.566071,122.546402 385.540009,126.646248 
	C381.812378,130.252884 378.491241,133.466248 374.917786,136.930695 
M376.443024,130.024933 
	C376.359528,130.258530 376.276031,130.492126 376.192505,130.725723 
	C376.419769,130.655060 376.647003,130.584412 376.443024,130.024933 
z"/>
<path fill="#E6E6E6" opacity="1.000000" stroke="none" 
	d="
M167.547943,103.397263 
	C169.449738,106.569969 171.135071,109.449226 172.820389,112.328476 
	C172.256805,112.717735 171.693222,113.106995 171.129639,113.496254 
	C168.184158,109.205307 165.238663,104.914360 162.293167,100.623413 
	C161.953552,100.796677 161.613922,100.969933 161.274292,101.143188 
	C161.862915,103.983421 162.451538,106.823654 163.342163,111.121071 
	C159.782227,108.644302 157.463730,107.031242 155.145233,105.418190 
	C154.849640,105.637589 154.554047,105.856995 154.258438,106.076393 
	C156.204773,109.358131 158.243805,112.590225 160.043427,115.950531 
	C160.616165,117.019928 160.552307,118.430252 160.779755,119.684570 
	C159.849426,118.975502 158.626282,118.452896 158.036591,117.526909 
	C154.398727,111.814293 150.903625,106.010757 146.952164,99.571060 
	C153.081345,96.802628 154.560349,104.195076 159.009048,104.446030 
	C161.051804,100.530479 154.985245,95.738731 160.101807,91.358376 
	C162.694687,95.570808 165.013092,99.337311 167.547943,103.397263 
M159.429260,105.703560 
	C159.544678,105.602020 159.741928,105.508224 159.752457,105.396759 
	C159.763000,105.285469 159.586594,105.156502 159.492142,105.035286 
	C159.376419,105.136658 159.260696,105.238029 159.429260,105.703560 
z"/>
<path fill="#E7E7E7" opacity="1.000000" stroke="none" 
	d="
M308.449860,77.150330 
	C309.512482,77.941605 310.974701,79.057076 310.788910,79.684456 
	C308.686981,86.781731 306.332581,93.804230 304.045807,100.846756 
	C303.387543,100.710182 302.729279,100.573616 302.070984,100.437042 
	C303.195801,95.772858 304.320587,91.108665 305.445404,86.444481 
	C305.160126,86.289581 304.874817,86.134682 304.589539,85.979782 
	C302.822418,87.847923 301.055298,89.716064 298.278748,92.651329 
	C298.278748,87.912376 298.278748,84.692909 298.278748,81.473434 
	C297.847626,81.373795 297.416504,81.274147 296.985382,81.174500 
	C295.237640,86.448982 293.489868,91.723465 291.742096,96.997948 
	C291.143768,96.840706 290.545441,96.683464 289.947083,96.526222 
	C290.623108,88.699646 294.644836,81.622925 296.223724,74.028435 
	C299.916931,74.333466 299.934296,74.333183 300.006805,78.844620 
	C300.045959,81.278374 300.013794,83.713287 300.013794,87.373444 
	C303.225403,83.343872 305.654724,80.295853 308.449860,77.150330 
M305.424347,86.154945 
	C305.493073,85.544334 305.561798,84.933731 305.630524,84.323128 
	C305.315552,84.783676 305.000549,85.244217 305.424347,86.154945 
z"/>
<path fill="#E6E6E6" opacity="1.000000" stroke="none" 
	d="
M383.399506,140.238937 
	C379.540314,142.946899 375.681152,145.654846 371.821960,148.362808 
	C371.394836,147.767059 370.967712,147.171310 370.540619,146.575577 
	C376.803680,141.717499 383.066772,136.859421 389.330719,132.000687 
	C391.425720,134.512253 391.425720,134.512253 384.916870,145.262985 
	C387.797516,144.369934 390.020752,143.505798 392.323761,143.019226 
	C394.351898,142.590729 396.469147,142.584259 398.547058,142.391434 
	C398.705994,143.016785 398.864960,143.642151 399.023895,144.267517 
	C392.634613,149.091446 386.245331,153.915390 379.856018,158.739319 
	C379.325195,158.084335 378.794342,157.429337 378.263519,156.774338 
	C382.142700,153.791489 386.021881,150.808624 390.312439,147.401276 
	C390.319397,146.767868 389.915009,146.558929 389.510590,146.350006 
	C386.806366,147.075623 384.102142,147.801254 379.918762,148.923782 
	C381.865326,145.723648 382.992676,143.870239 384.488922,141.504791 
	C385.147705,140.439148 385.437622,139.885529 385.727539,139.331894 
	C385.524872,139.186569 385.322174,139.041245 385.119476,138.895920 
	C384.546173,139.343597 383.972839,139.791260 383.399506,140.238937 
z"/>
<path fill="#E5E5E5" opacity="1.000000" stroke="none" 
	d="
M88.068771,182.988373 
	C92.300652,182.984344 96.068657,182.984344 99.836655,182.984344 
	C99.914124,182.506470 99.991592,182.028595 100.069054,181.550720 
	C97.467155,180.397736 94.865936,179.243195 92.263153,178.092194 
	C89.760109,176.985306 87.255447,175.882065 84.308922,174.581924 
	C87.576057,172.880463 98.410210,176.734222 107.555939,182.214828 
	C106.213486,184.910110 106.212433,184.884399 98.066620,185.217194 
	C94.271950,185.372223 90.482262,185.649109 86.456352,186.600922 
	C89.377747,187.894714 92.332726,189.118698 95.210495,190.503174 
	C97.766335,191.732773 100.236511,193.140427 102.744507,194.469498 
	C102.406410,195.029221 102.068321,195.588928 101.730225,196.148651 
	C94.508316,193.062592 87.286400,189.976532 80.087990,186.900513 
	C81.290268,183.185410 81.290268,183.185410 88.068771,182.988373 
z"/>
<path fill="#E0E0E0" opacity="1.000000" stroke="none" 
	d="
M119.047379,139.834351 
	C128.341263,147.491486 128.327316,151.582138 119.025337,161.387100 
	C112.790787,156.643372 106.522591,151.874054 100.280846,147.124863 
	C107.289642,136.073471 110.094795,134.974045 119.047379,139.834351 
M112.309959,139.882874 
	C107.470680,139.219788 105.866776,142.865936 103.635658,146.329620 
	C108.815056,150.272598 113.868454,154.119659 118.900360,157.950348 
	C125.025093,150.848740 124.615623,146.665497 117.540146,142.060730 
	C116.187019,141.180115 114.592987,140.669662 112.309959,139.882874 
z"/>
<path fill="#E6E6E6" opacity="1.000000" stroke="none" 
	d="
M408.532166,171.714600 
	C410.537689,170.891861 412.200867,170.212509 414.194122,169.398346 
	C416.365326,174.476135 420.542114,179.127472 416.624664,184.677277 
	C413.153778,189.594513 407.862823,191.844711 401.843414,191.165237 
	C394.840973,190.374847 394.701416,183.869858 392.068451,178.834778 
	C397.652863,176.418030 402.921356,174.138016 408.532166,171.714600 
M399.721313,178.296692 
	C398.268524,179.023056 396.815704,179.749435 393.877594,181.218430 
	C397.084534,184.107803 399.357147,187.295761 402.432556,188.622086 
	C405.863403,190.101669 413.664154,186.340103 414.652985,182.823425 
	C415.504456,179.795197 414.506165,176.246841 414.325745,172.928452 
	C412.683655,173.051010 412.495697,172.971329 412.364014,173.026352 
	C408.392731,174.685471 404.427032,176.357880 399.721313,178.296692 
z"/>
<path fill="#E2E2E2" opacity="1.000000" stroke="none" 
	d="
M329.548218,103.521744 
	C332.524292,98.736298 335.281036,94.248291 338.161743,89.558479 
	C339.577881,91.779282 339.577881,91.779282 334.928802,100.271881 
	C337.639648,101.935944 340.382050,103.619385 343.315338,105.419991 
	C345.470551,102.227753 347.453003,99.291435 349.435425,96.355118 
	C350.076019,96.798286 350.716614,97.241455 351.357239,97.684624 
	C347.167236,104.532600 342.977234,111.380577 338.647125,118.457520 
	C337.287659,116.150726 337.287659,116.150726 342.015228,107.369331 
	C339.249573,105.675423 336.465240,103.970100 333.689392,102.269943 
	C331.505005,105.485596 329.468903,108.483002 327.432770,111.480408 
	C326.824493,111.124496 326.216217,110.768585 325.607941,110.412674 
	C326.848267,108.214851 328.088593,106.017021 329.548218,103.521744 
z"/>
<path fill="#E3E3E3" opacity="1.000000" stroke="none" 
	d="
M314.605591,85.556198 
	C318.356598,81.827309 322.226410,80.935616 326.460052,83.842438 
	C330.549988,86.650581 330.897675,90.797318 329.397491,94.924812 
	C328.236786,98.118309 326.525574,101.282677 324.377380,103.900589 
	C321.988831,106.811386 318.465424,107.427582 314.865997,105.881416 
	C311.271210,104.337265 309.049133,101.392738 309.865631,97.648567 
	C310.754120,93.574341 312.805145,89.753624 314.605591,85.556198 
M314.625977,103.084846 
	C318.965271,105.629379 321.855194,103.464455 324.275757,100.038437 
	C327.626495,95.295883 328.695007,88.927078 325.950470,86.727409 
	C324.333466,85.431419 321.211456,84.629906 319.351044,85.279816 
	C313.728668,87.243942 310.921387,97.205460 314.625977,103.084846 
z"/>
<path fill="#E0E0E0" opacity="1.000000" stroke="none" 
	d="
M387.090271,162.167786 
	C386.997040,163.759720 386.953735,165.310928 387.534119,166.575974 
	C388.769653,169.268951 390.329163,171.813263 391.755890,174.418503 
	C391.176971,174.757126 390.598022,175.095749 390.019104,175.434372 
	C387.498566,171.170456 384.977997,166.906540 382.124878,162.080017 
	C388.958649,158.044540 395.736664,154.042007 403.044830,149.726395 
	C405.679047,154.281723 408.242615,158.714874 410.806183,163.148026 
	C410.225311,163.531067 409.644470,163.914124 409.063629,164.297180 
	C406.889709,160.740189 404.715759,157.183182 402.362244,153.332306 
	C399.880646,154.773087 397.616119,156.087845 395.300171,157.432465 
	C396.783569,160.294159 398.190186,163.007706 399.596802,165.721237 
	C399.146576,166.025406 398.696320,166.329575 398.246063,166.633743 
	C396.531494,164.176849 394.816895,161.719940 392.889038,158.957413 
	C391.089905,159.957962 389.256378,160.977676 387.090271,162.167786 
z"/>
<path fill="#E3E3E3" opacity="1.000000" stroke="none" 
	d="
M134.495117,112.275719 
	C135.346741,115.033379 136.467453,117.576363 137.689865,120.350105 
	C140.911636,117.991791 143.399765,116.170502 145.887878,114.349213 
	C146.245026,114.787544 146.602173,115.225876 146.959320,115.664207 
	C144.797943,117.645660 142.636581,119.627121 139.981583,122.061119 
	C141.644623,124.181717 143.419876,126.445374 145.201218,128.716827 
	C148.819687,126.005554 152.191574,123.479042 155.563461,120.952538 
	C155.939789,121.442886 156.316116,121.933228 156.692444,122.423576 
	C152.815369,125.641441 148.938278,128.859299 144.748688,132.336533 
	C139.628632,125.943977 134.699432,119.789719 129.516998,113.319283 
	C133.725769,110.012520 137.712357,106.880310 141.698944,103.748108 
	C142.117065,104.227867 142.535172,104.707626 142.953278,105.187386 
	C140.223587,107.478607 137.493912,109.769829 134.495117,112.275719 
z"/>
<path fill="#DFDFDF" opacity="1.000000" stroke="none" 
	d="
M192.074768,99.712860 
	C192.185303,93.082840 192.182297,86.920021 192.461075,80.769981 
	C192.524353,79.373703 193.564560,78.021713 194.155106,76.649345 
	C195.410370,77.355011 197.061966,77.762360 197.854965,78.815956 
	C202.202286,84.591782 206.339096,90.526047 210.548187,96.405899 
	C210.256851,96.744698 209.965500,97.083496 209.674164,97.422295 
	C208.728729,96.864922 207.298203,96.531517 206.919937,95.712273 
	C205.058304,91.680267 202.291275,92.187408 198.739822,93.164909 
	C195.120224,94.161171 194.756516,96.331398 194.884125,99.372223 
	C194.921173,100.254608 194.004608,101.177010 193.525177,102.081062 
	C193.037888,101.448936 192.550598,100.816811 192.074768,99.712860 
M194.980270,89.118721 
	C195.023346,89.944763 195.066422,90.770805 195.128693,91.965073 
	C197.551056,91.188881 199.792679,90.470604 202.457596,89.616692 
	C200.007431,86.209412 197.888779,83.263153 194.997620,79.242638 
	C194.997620,83.270950 194.997620,85.759850 194.980270,89.118721 
z"/>
<path fill="#E2E2E2" opacity="1.000000" stroke="none" 
	d="
M96.006790,158.238663 
	C103.622856,159.895645 110.842461,161.454224 118.062057,163.012802 
	C118.044693,163.453461 118.027321,163.894119 118.009949,164.334778 
	C115.456367,164.334778 112.902794,164.334778 110.031967,164.334778 
	C109.288864,165.547806 108.571274,167.042572 107.560585,168.302170 
	C105.411751,170.980225 105.474495,173.188049 108.207466,175.505554 
	C109.063576,176.231506 109.146439,177.869324 109.583244,179.089737 
	C109.194054,179.277374 108.804871,179.465012 108.415688,179.652634 
	C103.407669,173.986862 98.337524,168.374329 93.417793,162.632904 
	C90.951813,159.755066 91.821022,158.146652 96.006790,158.238663 
M102.452965,169.025360 
	C104.217049,167.443802 105.981133,165.862244 108.488319,163.614471 
	C103.421051,162.558899 99.972603,161.840546 95.392403,160.886429 
	C98.103371,164.013168 100.044464,166.251953 102.452965,169.025360 
z"/>
<path fill="#E6E6E6" opacity="1.000000" stroke="none" 
	d="
M359.923645,106.609497 
	C363.245026,105.222694 364.715485,106.684875 363.821838,109.361725 
	C361.380371,116.674774 358.484467,123.836105 354.762817,131.080292 
	C354.501251,130.161255 353.719818,128.917633 354.059326,128.373825 
	C357.143982,123.432930 354.089874,120.971748 350.404266,118.666786 
	C349.849579,118.319901 349.375488,117.844131 348.885895,117.445679 
	C346.350800,118.586853 343.884186,119.697212 341.417572,120.807564 
	C341.156433,120.249008 340.895294,119.690460 340.634155,119.131905 
	C346.956055,115.028793 353.277985,110.925682 359.923645,106.609497 
M359.261993,110.038361 
	C356.528046,111.842697 353.794128,113.647041 350.639984,115.728691 
	C352.767212,117.436996 354.617950,118.923279 356.912659,120.766068 
	C358.269318,116.978485 359.428497,113.742180 360.809998,110.076332 
	C360.713684,109.794189 360.617340,109.512047 360.520996,109.229912 
	C360.331268,109.468864 360.141541,109.707817 359.261993,110.038361 
z"/>
<path fill="#E0E0E0" opacity="1.000000" stroke="none" 
	d="
M137.104156,140.123291 
	C135.063354,142.110657 133.271179,143.848877 130.855530,146.191803 
	C125.861015,140.226685 120.769630,134.145874 115.177612,127.467148 
	C117.271362,125.750053 121.115860,122.597183 124.960358,119.444305 
	C125.142982,119.573654 125.325607,119.703011 125.508232,119.832359 
	C122.697548,122.766289 119.886856,125.700218 116.855560,128.864426 
	C119.065468,130.813751 121.235191,132.727600 123.413666,134.649185 
	C125.712662,132.497284 127.935966,130.416229 130.159271,128.335159 
	C130.566284,128.699524 130.973297,129.063889 131.380310,129.428238 
	C129.382614,131.749130 127.384926,134.070023 125.333229,136.453659 
	C127.175667,138.455582 129.048553,140.490585 132.048126,143.749802 
	C135.186920,140.167450 137.950867,137.012939 140.714798,133.858414 
	C141.046524,134.153778 141.378250,134.449127 141.709976,134.744492 
	C140.257584,136.454376 138.805176,138.164261 137.104156,140.123291 
z"/>
<path fill="#E3E3E3" opacity="1.000000" stroke="none" 
	d="
M236.908569,73.385101 
	C235.705429,71.744408 234.522690,70.567322 232.354218,68.409248 
	C236.249039,68.218735 239.590164,68.055305 242.931305,67.891876 
	C243.019791,68.317154 243.108276,68.742432 243.196747,69.167709 
	C242.018921,69.715019 240.841080,70.262329 239.481033,70.894302 
	C239.807251,76.932968 240.137115,83.039055 240.478302,89.354713 
	C241.880005,89.732445 243.166351,90.079086 244.452682,90.425728 
	C244.435913,90.899055 244.419128,91.372383 244.402359,91.845711 
	C240.994843,92.073875 237.587326,92.302048 234.179794,92.530220 
	C234.082413,92.019821 233.985031,91.509430 233.887634,90.999031 
	C235.104019,90.531242 236.320419,90.063446 237.791504,89.497696 
	C237.508881,84.370285 237.218918,79.109505 236.908569,73.385101 
z"/>
<path fill="#DFDFDF" opacity="1.000000" stroke="none" 
	d="
M215.253616,93.116119 
	C219.542908,92.797462 223.494720,92.189690 227.446533,91.581924 
	C227.556091,92.191017 227.665634,92.800110 227.775177,93.409203 
	C222.855606,94.400803 217.936050,95.392403 213.059723,96.375290 
	C209.208969,84.488960 208.028320,74.380531 210.533417,71.901260 
	C212.033600,79.064018 213.474869,85.945511 215.253616,93.116119 
z"/>
<path fill="#DBDBDB" opacity="1.000000" stroke="none" 
	d="
M261.040527,81.105011 
	C258.007904,86.336884 255.124039,91.233475 252.240173,96.130074 
	C251.634689,95.773651 251.029221,95.417229 250.423737,95.060806 
	C255.741653,85.848869 261.059570,76.636932 266.377472,67.424995 
	C267.005066,67.758148 267.632629,68.091309 268.260223,68.424469 
	C265.903229,72.539558 263.546234,76.654648 261.040527,81.105011 
z"/>
<path fill="#DBDBDB" opacity="1.000000" stroke="none" 
	d="
M405.526306,217.457642 
	C408.834625,219.046936 411.878693,220.876846 415.236267,222.895203 
	C417.383423,220.053680 419.590179,217.133240 421.796967,214.212799 
	C422.354370,214.602615 422.911743,214.992432 423.469116,215.382248 
	C420.971405,218.913406 418.473663,222.444565 415.478333,226.679214 
	C411.893799,223.528107 408.577911,220.613174 405.526306,217.457642 
z"/>
<path fill="#DBDBDB" opacity="1.000000" stroke="none" 
	d="
M82.116287,221.928207 
	C83.318771,223.550507 84.313118,224.876221 85.548584,226.523407 
	C88.623207,224.459061 91.665901,222.416153 94.708595,220.373245 
	C95.075630,220.845322 95.442665,221.317383 95.809700,221.789459 
	C92.393471,224.389771 88.977242,226.990097 85.168236,229.889389 
	C82.332062,225.949142 79.760658,222.376724 77.189247,218.804321 
	C77.692711,218.433044 78.196175,218.061768 78.699638,217.690491 
	C79.769135,219.004196 80.838631,220.317917 82.116287,221.928207 
z"/>
<path fill="#010101" opacity="1.000000" stroke="none" 
	d="
M376.658630,130.269348 
	C376.647003,130.584412 376.419769,130.655060 376.192505,130.725723 
	C376.276031,130.492126 376.359528,130.258530 376.658630,130.269348 
z"/>
<path fill="#010101" opacity="1.000000" stroke="none" 
	d="
M159.287109,105.521484 
	C159.260696,105.238029 159.376419,105.136658 159.492142,105.035286 
	C159.586594,105.156502 159.763000,105.285469 159.752457,105.396759 
	C159.741928,105.508224 159.544678,105.602020 159.287109,105.521484 
z"/>
<path fill="#010101" opacity="1.000000" stroke="none" 
	d="
M305.054932,85.929855 
	C305.000549,85.244217 305.315552,84.783676 305.630524,84.323120 
	C305.561798,84.933731 305.493073,85.544334 305.054932,85.929855 
z"/>
<path fill="#010101" opacity="1.000000" stroke="none" 
	d="
M383.645721,140.534241 
	C383.972839,139.791260 384.546173,139.343597 385.119476,138.895920 
	C385.322174,139.041245 385.524872,139.186569 385.727539,139.331894 
	C385.437622,139.885529 385.147705,140.439148 384.635284,141.194031 
	C384.239197,141.206726 384.065582,141.018127 383.645721,140.534241 
z"/>
<path fill="#010101" opacity="1.000000" stroke="none" 
	d="
M389.682312,146.583008 
	C389.915009,146.558929 390.319397,146.767868 390.484711,147.109558 
	C390.115112,147.100235 389.984589,146.958130 389.682312,146.583008 
z"/>
<path fill="#090909" opacity="1.000000" stroke="none" 
	d="
M112.710037,139.935638 
	C114.592987,140.669662 116.187019,141.180115 117.540146,142.060730 
	C124.615623,146.665497 125.025093,150.848740 118.900360,157.950348 
	C113.868454,154.119659 108.815056,150.272598 103.635658,146.329620 
	C105.866776,142.865936 107.470680,139.219788 112.710037,139.935638 
z"/>
<path fill="#0B0B0B" opacity="1.000000" stroke="none" 
	d="
M400.090881,178.162445 
	C404.427032,176.357880 408.392731,174.685471 412.364014,173.026352 
	C412.495697,172.971329 412.683655,173.051010 414.325745,172.928452 
	C414.506165,176.246841 415.504456,179.795197 414.652985,182.823425 
	C413.664154,186.340103 405.863403,190.101669 402.432556,188.622086 
	C399.357147,187.295761 397.084534,184.107803 393.877594,181.218430 
	C396.815704,179.749435 398.268524,179.023056 400.090881,178.162445 
z"/>
<path fill="#0A0A0A" opacity="1.000000" stroke="none" 
	d="
M314.306702,102.848450 
	C310.921387,97.205460 313.728668,87.243942 319.351044,85.279816 
	C321.211456,84.629906 324.333466,85.431419 325.950470,86.727409 
	C328.695007,88.927078 327.626495,95.295883 324.275757,100.038437 
	C321.855194,103.464455 318.965271,105.629379 314.306702,102.848450 
z"/>
<path fill="#0B0B0B" opacity="1.000000" stroke="none" 
	d="
M194.988953,88.683731 
	C194.997620,85.759850 194.997620,83.270950 194.997620,79.242638 
	C197.888779,83.263153 200.007431,86.209412 202.457596,89.616692 
	C199.792679,90.470604 197.551056,91.188881 195.128693,91.965073 
	C195.066422,90.770805 195.023346,89.944763 194.988953,88.683731 
z"/>
<path fill="#111111" opacity="1.000000" stroke="none" 
	d="
M102.219254,168.758057 
	C100.044464,166.251953 98.103371,164.013168 95.392403,160.886429 
	C99.972603,161.840546 103.421051,162.558899 108.488319,163.614471 
	C105.981133,165.862244 104.217049,167.443802 102.219254,168.758057 
z"/>
<path fill="#181818" opacity="1.000000" stroke="none" 
	d="
M360.587708,110.505875 
	C359.428497,113.742180 358.269318,116.978485 356.912659,120.766068 
	C354.617950,118.923279 352.767212,117.436996 350.639984,115.728691 
	C353.794128,113.647041 356.528046,111.842697 359.758087,110.141182 
	C360.254181,110.244003 360.587677,110.505867 360.587708,110.505875 
z"/>
<path fill="#181818" opacity="1.000000" stroke="none" 
	d="
M360.102997,110.095383 
	C360.141541,109.707817 360.331268,109.468864 360.520996,109.229904 
	C360.617340,109.512047 360.713684,109.794189 360.698853,110.291100 
	C360.587677,110.505867 360.254181,110.244003 360.102997,110.095383 
z"/>
</svg>